<svg xmlns="http://www.w3.org/2000/svg" width="1200" height="630" viewBox="0 0 1200 630">
  <defs>
    <linearGradient id="bg" x1="0%" y1="0%" x2="100%" y2="100%">
      <stop offset="0%" style="stop-color:#0f172a"/>
      <stop offset="50%" style="stop-color:#1e293b"/>
      <stop offset="100%" style="stop-color:#0f172a"/>
    </linearGradient>
    <linearGradient id="titleGrad" x1="0%" y1="0%" x2="100%" y2="0%">
      <stop offset="0%" style="stop-color:#60a5fa"/>
      <stop offset="50%" style="stop-color:#a78bfa"/>
      <stop offset="100%" style="stop-color:#f472b6"/>
    </linearGradient>
    <radialGradient id="glow1" cx="30%" cy="40%" r="40%">
      <stop offset="0%" style="stop-color:#3b82f620"/>
      <stop offset="100%" style="stop-color:#3b82f600"/>
    </radialGradient>
    <radialGradient id="glow2" cx="70%" cy="60%" r="40%">
      <stop offset="0%" style="stop-color:#8b5cf620"/>
      <stop offset="100%" style="stop-color:#8b5cf600"/>
    </radialGradient>
  </defs>

  <!-- Background -->
  <rect width="1200" height="630" fill="url(#bg)"/>
  <rect width="1200" height="630" fill="url(#glow1)"/>
  <rect width="1200" height="630" fill="url(#glow2)"/>

  <!-- Border -->
  <rect x="2" y="2" width="1196" height="626" rx="0" fill="none" stroke="rgba(255,255,255,0.06)" stroke-width="2"/>

  <!-- Logo circle -->
  <rect x="80" y="220" width="72" height="72" rx="18" fill="#1e40af" opacity="0.9"/>
  <text x="116" y="266" font-family="Arial, sans-serif" font-size="38" font-weight="bold" fill="white" text-anchor="middle">C</text>

  <!-- App name -->
  <text x="170" y="270" font-family="Arial, sans-serif" font-size="48" font-weight="bold" fill="white">Cosmo</text>

  <!-- Main title -->
  <text x="80" y="355" font-family="Arial, sans-serif" font-size="58" font-weight="bold" fill="url(#titleGrad)">Tâches · Habitudes · OKR</text>
  <text x="80" y="420" font-family="Arial, sans-serif" font-size="42" font-weight="600" fill="rgba(255,255,255,0.85)">dans une seule application gratuite</text>

  <!-- Tagline -->
  <text x="80" y="480" font-family="Arial, sans-serif" font-size="26" fill="rgba(148,163,184,0.9)">Time-blocking · Heatmap habitudes · Méthode OKR</text>

  <!-- CTA badge -->
  <rect x="80" y="515" width="260" height="50" rx="25" fill="rgba(59,130,246,0.2)" stroke="rgba(59,130,246,0.4)" stroke-width="1.5"/>
  <text x="210" y="547" font-family="Arial, sans-serif" font-size="20" font-weight="600" fill="#60a5fa" text-anchor="middle">Essayez sans inscription →</text>

  <!-- URL -->
  <text x="1120" y="590" font-family="Arial, sans-serif" font-size="20" fill="rgba(100,116,139,0.8)" text-anchor="end">thecosmo.app</text>

  <!-- Feature pills -->
  <rect x="80" y="155" width="120" height="36" rx="18" fill="rgba(59,130,246,0.15)" stroke="rgba(59,130,246,0.25)" stroke-width="1"/>
  <text x="140" y="179" font-family="Arial, sans-serif" font-size="16" fill="#60a5fa" text-anchor="middle">Tâches</text>

  <rect x="212" y="155" width="140" height="36" rx="18" fill="rgba(234,179,8,0.12)" stroke="rgba(234,179,8,0.25)" stroke-width="1"/>
  <text x="282" y="179" font-family="Arial, sans-serif" font-size="16" fill="#fbbf24" text-anchor="middle">Habitudes</text>

  <rect x="364" y="155" width="90" height="36" rx="18" fill="rgba(34,197,94,0.12)" stroke="rgba(34,197,94,0.25)" stroke-width="1"/>
  <text x="409" y="179" font-family="Arial, sans-serif" font-size="16" fill="#4ade80" text-anchor="middle">OKR</text>

  <rect x="466" y="155" width="110" height="36" rx="18" fill="rgba(239,68,68,0.12)" stroke="rgba(239,68,68,0.25)" stroke-width="1"/>
  <text x="521" y="179" font-family="Arial, sans-serif" font-size="16" fill="#f87171" text-anchor="middle">Agenda</text>

  <rect x="588" y="155" width="140" height="36" rx="18" fill="rgba(139,92,246,0.12)" stroke="rgba(139,92,246,0.25)" stroke-width="1"/>
  <text x="658" y="179" font-family="Arial, sans-serif" font-size="16" fill="#a78bfa" text-anchor="middle">Statistiques</text>

  <!-- Decorative stats on right -->
  <g transform="translate(800, 180)">
    <rect width="320" height="280" rx="16" fill="rgba(255,255,255,0.03)" stroke="rgba(255,255,255,0.08)" stroke-width="1"/>
    <!-- Habit heatmap dots -->
    <text x="20" y="32" font-family="Arial, sans-serif" font-size="12" fill="rgba(100,116,139,0.7)">HABITUDES — 26 SEMAINES</text>
    <g transform="translate(16, 44)">
      <!-- Row of habit squares -->
      <script type="text/javascript">
        /* static SVG, no JS needed */
      </script>
      <!-- Simplified heatmap 14×7 -->
      <rect x="0"   y="0"  width="10" height="10" rx="2" fill="rgba(245,158,11,0.8)"/>
      <rect x="14"  y="0"  width="10" height="10" rx="2" fill="rgba(245,158,11,0.5)"/>
      <rect x="28"  y="0"  width="10" height="10" rx="2" fill="rgba(255,255,255,0.06)"/>
      <rect x="42"  y="0"  width="10" height="10" rx="2" fill="rgba(245,158,11,0.9)"/>
      <rect x="56"  y="0"  width="10" height="10" rx="2" fill="rgba(245,158,11,0.6)"/>
      <rect x="70"  y="0"  width="10" height="10" rx="2" fill="rgba(245,158,11,0.8)"/>
      <rect x="84"  y="0"  width="10" height="10" rx="2" fill="rgba(245,158,11,0.4)"/>
      <rect x="98"  y="0"  width="10" height="10" rx="2" fill="rgba(245,158,11,0.9)"/>
      <rect x="112" y="0"  width="10" height="10" rx="2" fill="rgba(255,255,255,0.06)"/>
      <rect x="126" y="0"  width="10" height="10" rx="2" fill="rgba(245,158,11,0.7)"/>
      <rect x="140" y="0"  width="10" height="10" rx="2" fill="rgba(245,158,11,0.9)"/>
      <rect x="154" y="0"  width="10" height="10" rx="2" fill="rgba(245,158,11,0.5)"/>
      <rect x="168" y="0"  width="10" height="10" rx="2" fill="rgba(245,158,11,0.8)"/>
      <rect x="182" y="0"  width="10" height="10" rx="2" fill="rgba(245,158,11,1.0)"/>
      <rect x="0"   y="14" width="10" height="10" rx="2" fill="rgba(255,255,255,0.06)"/>
      <rect x="14"  y="14" width="10" height="10" rx="2" fill="rgba(245,158,11,0.8)"/>
      <rect x="28"  y="14" width="10" height="10" rx="2" fill="rgba(245,158,11,0.6)"/>
      <rect x="42"  y="14" width="10" height="10" rx="2" fill="rgba(255,255,255,0.06)"/>
      <rect x="56"  y="14" width="10" height="10" rx="2" fill="rgba(245,158,11,0.9)"/>
      <rect x="70"  y="14" width="10" height="10" rx="2" fill="rgba(245,158,11,0.3)"/>
      <rect x="84"  y="14" width="10" height="10" rx="2" fill="rgba(245,158,11,0.7)"/>
      <rect x="98"  y="14" width="10" height="10" rx="2" fill="rgba(245,158,11,0.9)"/>
      <rect x="112" y="14" width="10" height="10" rx="2" fill="rgba(245,158,11,0.5)"/>
      <rect x="126" y="14" width="10" height="10" rx="2" fill="rgba(245,158,11,0.8)"/>
      <rect x="140" y="14" width="10" height="10" rx="2" fill="rgba(255,255,255,0.06)"/>
      <rect x="154" y="14" width="10" height="10" rx="2" fill="rgba(245,158,11,1.0)"/>
      <rect x="168" y="14" width="10" height="10" rx="2" fill="rgba(245,158,11,0.7)"/>
      <rect x="182" y="14" width="10" height="10" rx="2" fill="rgba(245,158,11,0.9)"/>
    </g>
    <!-- OKR progress bar -->
    <text x="20" y="110" font-family="Arial, sans-serif" font-size="12" fill="rgba(100,116,139,0.7)">OKR — PROGRESSION</text>
    <rect x="20" y="122" width="280" height="8" rx="4" fill="rgba(255,255,255,0.06)"/>
    <rect x="20" y="122" width="190" height="8" rx="4" fill="#34d399"/>
    <text x="20" y="150" font-family="Arial, sans-serif" font-size="20" font-weight="bold" fill="white">68%</text>
    <text x="60" y="150" font-family="Arial, sans-serif" font-size="14" fill="rgba(100,116,139,0.8)">objectif atteint</text>
    <!-- Task count -->
    <text x="20" y="190" font-family="Arial, sans-serif" font-size="12" fill="rgba(100,116,139,0.7)">TÂCHES — AUJOURD'HUI</text>
    <rect x="20" y="202" width="280" height="38" rx="8" fill="rgba(59,130,246,0.08)" stroke="rgba(59,130,246,0.2)" stroke-width="1"/>
    <text x="36" y="227" font-family="Arial, sans-serif" font-size="14" fill="rgba(255,255,255,0.85)">✓  Préparer la présentation</text>
    <text x="20" y="258" font-family="Arial, sans-serif" font-size="12" fill="rgba(100,116,139,0.7)">STREAK ACTUEL</text>
    <text x="20" y="285" font-family="Arial, sans-serif" font-size="32" font-weight="bold" fill="#fb923c">🔥 14 jours</text>
  </g>
</svg>
